<svg xmlns="http://www.w3.org/2000/svg" fill="#333333" xmlns:xlink="http://www.w3.org/1999/xlink" version="1.1" x="0px" y="0px" viewBox="0 0 72 90" enable-background="new 0 0 72 72" xml:space="preserve"><g><path d="M65.9,20.6c-1.3,2.4-3.9,4-6.9,3.9c-3.8-0.2-6.9-3.3-7-7.2c-0.1-4.2,3.2-7.6,7.4-7.6c2.8,0,5.3,1.6,6.5,3.9   c0.3,0.5,0.7,0.8,1.3,0.8h2.9c0.8,0,1.4-0.6,1.4-1.4V4.4c0-2.1-1.7-3.8-3.8-3.8H42.4c-2.1,0-3.8,1.7-3.8,3.8v25.2   c0,2.1,1.7,3.8,3.8,3.8h25.2c2.1,0,3.8-1.7,3.8-3.8v-8.4c0-0.8-0.6-1.4-1.4-1.4h-2.9C66.6,19.8,66.2,20.1,65.9,20.6z"/><path d="M20.5,6.2c2.4,1.3,4,3.9,3.9,6.9c-0.2,3.8-3.3,6.9-7.2,7c-4.2,0.1-7.6-3.2-7.6-7.4c0-2.8,1.6-5.3,3.9-6.5   C13.9,6,14.2,5.5,14.2,5V2c0-0.8-0.6-1.4-1.4-1.4H4.3c-2.1,0-3.8,1.7-3.8,3.8v25.2c0,2.1,1.7,3.8,3.8,3.8h25.2   c2.1,0,3.8-1.7,3.8-3.8V4.4c0-2.1-1.7-3.8-3.8-3.8h-8.4c-0.8,0-1.4,0.6-1.4,1.4V5C19.7,5.5,20,6,20.5,6.2z"/><path d="M51.5,65.8c-2.4-1.3-4-3.9-3.9-6.9c0.2-3.8,3.3-6.9,7.2-7c4.2-0.1,7.6,3.2,7.6,7.4c0,2.8-1.6,5.3-3.9,6.5   c-0.5,0.3-0.8,0.7-0.8,1.3V70c0,0.8,0.6,1.4,1.4,1.4h8.4c2.1,0,3.8-1.7,3.8-3.8V42.3c0-2.1-1.7-3.8-3.8-3.8H42.4   c-2.1,0-3.8,1.7-3.8,3.8v25.2c0,2.1,1.7,3.8,3.8,3.8h8.4c0.8,0,1.4-0.6,1.4-1.4V67C52.3,66.5,52,66,51.5,65.8z"/><path d="M6.1,51.4c1.3-2.4,3.9-4,6.9-3.9c3.8,0.2,6.9,3.3,7,7.2c0.1,4.2-3.2,7.6-7.4,7.6c-2.8,0-5.3-1.6-6.5-3.9   c-0.3-0.5-0.7-0.8-1.3-0.8H1.9c-0.8,0-1.4,0.6-1.4,1.4v8.4c0,2.1,1.7,3.8,3.8,3.8h25.2c2.1,0,3.8-1.7,3.8-3.8V42.3   c0-2.1-1.7-3.8-3.8-3.8H4.3c-2.1,0-3.8,1.7-3.8,3.8v8.4c0,0.8,0.6,1.4,1.4,1.4h2.9C5.4,52.2,5.8,51.9,6.1,51.4z"/></g></svg>
